# xmcd
#
# Track frame offsets:
#	150
#	12763
#	27685
#	44970
#	53909
#	68484
#	82198
#	93832
#	106711
#	121956
#	139163
#	156295
#	174941
#	190438
#	201705
#	212829
#	220376
#	228539
#
# Disc length: 3296 seconds
#
# Revision: 1
# Processed by: cddbd v1.5.2PL0 Copyright (c) Steve Scherf et al.
# Submitted via: audiograbber 1.83.01
#
DISCID=0f0cde12
DTITLE=Hayseed Dixie - Weapons of Grass Destruction
DYEAR=2006
DGENRE=Country
TTITLE0=Holidays in the Sun
TTITLE1=Devil Woman
TTITLE2=I don't feel like dancing
TTITLE3=She was skinny when I met her
TTITLE4=Strawberry Fields forever
TTITLE5=Before your old man gets home
TTITLE6=Breaking the Law
TTITLE7=More pretty girls than one
TTITLE8=Walking cane
TTITLE9=Paint it black
TTITLE10=Hungover brokedown 
TTITLE11=Poison
TTITLE12=The rider song
TTITLE13=Mein Teil
TTITLE14=I got erection
TTITLE15=Eisgetuhlter Bommerlunder
TTITLE16=Barbeque
TTITLE17=Down Down
EXTD=
EXTT0=
EXTT1=
EXTT2=
EXTT3=
EXTT4=
EXTT5=
EXTT6=
EXTT7=
EXTT8=
EXTT9=
EXTT10=
EXTT11=
EXTT12=
EXTT13=
EXTT14=
EXTT15=
EXTT16=
EXTT17=
PLAYORDER=
